<svg xmlns="http://www.w3.org/2000/svg" width="156.025" height="98.959" viewBox="0 0 156.025 98.959">
    <defs>
        <style>
            .prefix__cls-1{fill:#ffffff}.prefix__cls-2{fill:#00b089}
        </style>
    </defs>
    <g id="prefix__Group_877" data-name="Group 877" transform="translate(-5171.03 -7886.925)">
        <g id="prefix__Group_873" data-name="Group 873">
            <path id="prefix__Path_1734" d="M5171.03 7926.187V7888.9a1.658 1.658 0 0 1 .79-1.437 3.226 3.226 0 0 1 1.861-.539h19.8a1.587 1.587 0 0 1 1.438.763 3.376 3.376 0 0 1 .479 1.833 3.451 3.451 0 0 1-.509 1.917 1.579 1.579 0 0 1-1.406.792h-16.473v12.917h8.743a1.637 1.637 0 0 1 1.41.706 2.871 2.871 0 0 1 .507 1.72 2.793 2.793 0 0 1-.479 1.607 1.621 1.621 0 0 1-1.438.706h-8.743v16.3a1.609 1.609 0 0 1-.874 1.467 4.606 4.606 0 0 1-4.2 0 1.6 1.6 0 0 1-.906-1.465z" class="prefix__cls-1" data-name="Path 1734"/>
            <path id="prefix__Path_1735" d="M5242.782 7926.187v-37.342a1.836 1.836 0 0 1 .566-1.354 1.911 1.911 0 0 1 1.41-.566h10.719q12.973 0 12.973 11.507a11.844 11.844 0 0 1-2.143 7.5 10.265 10.265 0 0 1-5.81 3.624l7.9 14.871a1.685 1.685 0 0 1 .227.848 2.74 2.74 0 0 1-1.157 2.1 3.772 3.772 0 0 1-2.453.961 2.683 2.683 0 0 1-2.37-1.753l-8.236-16.184h-5.7v15.788a1.629 1.629 0 0 1-.874 1.443 3.96 3.96 0 0 1-2.114.539 3.848 3.848 0 0 1-2.059-.537 1.623 1.623 0 0 1-.879-1.445zm5.923-20.533h6.77q6.995 0 6.993-6.713t-6.993-6.711h-6.77z" class="prefix__cls-1" data-name="Path 1735"/>
            <path id="prefix__Path_1736" d="M5270.929 7889.662a3.575 3.575 0 0 1 .507-1.91 1.62 1.62 0 0 1 1.467-.827h23.409a1.638 1.638 0 0 1 1.467.8 3.422 3.422 0 0 1 .509 1.88 3.647 3.647 0 0 1-.537 2.025 1.641 1.641 0 0 1-1.439.825h-8.687v33.736a1.614 1.614 0 0 1-.9 1.435 4.394 4.394 0 0 1-4.2 0 1.62 1.62 0 0 1-.873-1.435v-33.734h-8.752a1.637 1.637 0 0 1-1.438-.825 3.528 3.528 0 0 1-.533-1.97z" class="prefix__cls-1" data-name="Path 1736"/>
            <path id="prefix__Path_1737" d="M5302.348 7926.187V7888.9a1.654 1.654 0 0 1 .79-1.437 3.24 3.24 0 0 1 1.863-.537h20.08a1.64 1.64 0 0 1 1.467.79 3.279 3.279 0 0 1 .507 1.8 3.341 3.341 0 0 1-.535 1.917 1.657 1.657 0 0 1-1.439.79h-16.753v12.917h8.686a1.72 1.72 0 0 1 1.44.706 2.762 2.762 0 0 1 .536 1.72 2.677 2.677 0 0 1-.509 1.607 1.69 1.69 0 0 1-1.467.706h-8.686v12.974h16.753a1.661 1.661 0 0 1 1.439.79 3.352 3.352 0 0 1 .535 1.919 3.27 3.27 0 0 1-.507 1.8 1.636 1.636 0 0 1-1.467.79H5305a3.226 3.226 0 0 1-1.863-.537 1.652 1.652 0 0 1-.789-1.428z" class="prefix__cls-1" data-name="Path 1737"/>
            <path id="prefix__Path_1738" d="M5171.272 7982.8v-39.772a1.647 1.647 0 0 1 .932-1.533 5.22 5.22 0 0 1 4.506 0 1.651 1.651 0 0 1 .932 1.533v36.229h15.622a1.581 1.581 0 0 1 1.412.842 4.1 4.1 0 0 1 0 3.965 1.578 1.578 0 0 1-1.412.841H5174.1a3.443 3.443 0 0 1-1.983-.57 1.773 1.773 0 0 1-.845-1.535z" class="prefix__cls-1" data-name="Path 1738"/>
            <path id="prefix__Path_1739" d="M5243.006 7971.867v-17.483q0-6.909 3.665-10.153a13.964 13.964 0 0 1 9.613-3.245 15.392 15.392 0 0 1 9.882 3.035 9.8 9.8 0 0 1 3.817 8.082 3.109 3.109 0 0 1-.751 2.4 3.646 3.646 0 0 1-2.434.662q-3.125 0-3.185-2.1-.661-6.428-7.15-6.428-7.088 0-7.089 7.75v17.483q0 7.749 7.089 7.75a7.007 7.007 0 0 0 5.288-1.93q1.863-1.932 1.862-5.855v-4.95h-6.067a1.756 1.756 0 0 1-1.5-.741 2.992 2.992 0 0 1-.54-1.812 2.934 2.934 0 0 1 .54-1.722 1.731 1.731 0 0 1 1.5-.772h10.334a1.958 1.958 0 0 1 1.531.632 2.194 2.194 0 0 1 .572 1.53v7.872q0 6.91-3.7 10.153t-9.824 3.246q-6.127 0-9.792-3.246t-3.661-10.158z" class="prefix__cls-1" data-name="Path 1739"/>
            <path id="prefix__Path_1740" d="M5281.416 7983.781v-39.774a1.647 1.647 0 0 1 .932-1.533 5.218 5.218 0 0 1 4.5 0 1.651 1.651 0 0 1 .932 1.533v39.774a1.727 1.727 0 0 1-.932 1.531 4.666 4.666 0 0 1-4.476 0 1.725 1.725 0 0 1-.956-1.531z" class="prefix__cls-1" data-name="Path 1740"/>
            <path id="prefix__Path_1741" d="M5299.9 7971.867v-17.483q0-6.909 3.7-10.153a14.081 14.081 0 0 1 9.643-3.245q6.127 0 9.884 3.035a9.619 9.619 0 0 1 3.754 7.84 3.608 3.608 0 0 1-.722 2.613 3.515 3.515 0 0 1-2.463.691q-3.125 0-3.185-2.1-.36-6.428-7.029-6.428-7.211 0-7.21 7.751v17.482q0 7.749 7.329 7.751a9 9 0 0 0 3.6-.632 4.083 4.083 0 0 0 2.073-1.832 10.511 10.511 0 0 0 .87-2.1 13.511 13.511 0 0 0 .36-2.223q.182-2.1 3.125-2.1a3.636 3.636 0 0 1 2.492.691 3.512 3.512 0 0 1 .751 2.613 10.025 10.025 0 0 1-3.785 8.111q-3.786 3.125-9.914 3.125a13.968 13.968 0 0 1-9.613-3.246q-3.655-3.253-3.66-10.161z" class="prefix__cls-1" data-name="Path 1741"/>
        </g>
        <g id="prefix__Group_875" data-name="Group 875">
            <g id="prefix__Group_874" data-name="Group 874">
                <path id="prefix__Path_1742" d="M5215.887 7979.311h-6.5c-1.1 0-1.3-.536-1.3-1.64v-36.549a9.863 9.863 0 0 0-2.8-6.757 9.053 9.053 0 0 0 2.8-6.2v-33.936c0-1.1.2-2.677 1.3-2.677h6.5v-3.9h-6.5c-4.055 0-7.154 2.524-7.154 6.58v33.936c0 2.894-6.9 6.619-6.9 6.619s6.9 2.058 6.9 6.34v36.549a7.313 7.313 0 0 0 7.154 7.491h6.5z" class="prefix__cls-2" data-name="Path 1742"/>
            </g>
        </g>
        <g id="prefix__Group_876" data-name="Group 876">
            <path id="prefix__Path_1743" d="M5217.838 7979.311h7.35c1.1 0 2.4-.536 2.4-1.64v-36.549a9.868 9.868 0 0 1 2.795-6.757 9.055 9.055 0 0 1-2.795-6.2v-33.936c0-1.1-1.3-2.677-2.4-2.677h-7.35v-3.9h7.35c4.057 0 6.3 2.524 6.3 6.58v33.936c0 2.894 6.9 6.619 6.9 6.619s-6.9 2.058-6.9 6.34v36.549c0 4.055-2.245 7.491-6.3 7.491h-7.35z" class="prefix__cls-2" data-name="Path 1743"/>
        </g>
    </g>
</svg>
