<svg xmlns="http://www.w3.org/2000/svg" width="14" height="13.845" viewBox="0 0 14 13.845">
    <path data-name="Path 33828" d="M3.888.571A1.935 1.935 0 0 0 2.031 2h-1a.5.5 0 1 0 0 1h1a1.921 1.921 0 0 0 3.71.024L14.03 3a.5.5 0 0 0 0-1l-8.277.024A1.937 1.937 0 0 0 3.888.571zm0 1a.932.932 0 1 1-.932.932.924.924 0 0 1 .932-.932zM9.23 5.4a1.96 1.96 0 0 0-1.884 1.458H1.031a.5.5 0 1 0 0 1h6.316a1.945 1.945 0 0 0 3.766 0h2.917a.5.5 0 0 0 0-1h-2.916A1.96 1.96 0 0 0 9.23 5.4zm0 1a.956.956 0 1 1-.957.954.947.947 0 0 1 .957-.954zm-3.886 4.1a1.963 1.963 0 0 0-1.884 1.456H1.031a.5.5 0 1 0 0 1h2.428a1.946 1.946 0 0 0 3.769 0h6.8a.5.5 0 0 0 0-1h-6.8A1.962 1.962 0 0 0 5.344 10.5zm0 1a.957.957 0 1 1-.957.957.95.95 0 0 1 .957-.957z" style="fill:#8b93a3" transform="translate(-.529 -.571)"/>
</svg>
